<svg xmlns="http://www.w3.org/2000/svg" xmlns:xlink="http://www.w3.org/1999/xlink" fill="none" version="1.1" width="26.47845458984375" height="26.603416442871094" viewBox="0 0 26.47845458984375 26.603416442871094"><defs><radialGradient cx="0" cy="0" r="1" gradientUnits="userSpaceOnUse" id="master_svg0_28_07607" gradientTransform="translate(15.88828243048772 9.98437688722015) rotate(0) scale(14.537224368958164 14.069226040850802)"><stop offset="0%" stop-color="#00FFF7" stop-opacity="1"/><stop offset="100%" stop-color="#00FFF7" stop-opacity="0.00009999999747378752"/></radialGradient><filter id="master_svg1_71_05422" filterUnits="objectBoundingBox" color-interpolation-filters="sRGB" x="0" y="0" width="1" height="1"><feFlood flood-opacity="0" result="BackgroundImageFix"/><feBlend mode="normal" in="SourceGraphic" in2="BackgroundImageFix" result="shape"/><feColorMatrix in="SourceAlpha" type="matrix" result="hardAlpha" values="0 0 0 0 0 0 0 0 0 0 0 0 0 0 0 0 0 0 127 0"/><feOffset dy="1" dx="1"/><feGaussianBlur stdDeviation="0.5"/><feComposite in2="hardAlpha" operator="arithmetic" k2="-1" k3="1"/><feColorMatrix type="matrix" values="0 0 0 0 0 0 0 0 0 0.21568627655506134 0 0 0 0 0.21176470816135406 0 0 0 0.843137264251709 0"/><feBlend mode="normal" in2="shape" result="effect1_innerShadow"/></filter><linearGradient x1="0.7279869914054871" y1="0.023027008399367332" x2="0.539366280455872" y2="0.24536894357606964" id="master_svg2_28_07629"><stop offset="0%" stop-color="#006E6A" stop-opacity="0.545098066329956"/><stop offset="100%" stop-color="#004442" stop-opacity="0.00009999999747378752"/></linearGradient></defs><g><path d="M9.82498833317871,0.7067620754241943C5.831169133178711,2.0599295754241944,2.696395733178711,5.295083775424194,1.385213852178711,9.416789775424194L4.761119633178711,10.552204875424195C5.710097833178711,7.5353162754241945,8.00191113317871,5.170124775424195,10.92517473317871,4.190768975424194L9.82498833317871,0.7067620754241943ZM18.02354813317871,0.7067620754241943L16.92336113317871,4.190768975424194C19.832065133178713,5.186202275424194,22.122867133178712,7.534802675424194,23.08741613317871,10.552204875424195L26.46332213317871,9.416789775424194C25.152140133178712,5.2950832754241945,22.01736613317871,2.0599294754241946,18.02354813317871,0.7067620754241943ZM20.49529113317871,13.647298075424194C20.49529113317871,17.395719075424193,17.55644013317871,20.428678075424195,13.92432213317871,20.428678075424195C10.292205833178711,20.428678075424195,7.353353533178711,17.395719075424193,7.353353533178711,13.647298075424194C7.353353533178711,9.898877875424194,10.292205833178711,6.865918875424194,13.92432213317871,6.865918875424194C17.55644013317871,6.865918875424194,20.49529113317871,9.898877875424194,20.49529113317871,13.647298075424194ZM4.745982933178711,16.757970075424193L1.370077133178711,17.893387075424194C2.681259033178711,22.015093075424193,5.8160324331787105,25.250246075424194,9.809851633178711,26.603414075424194L10.910038033178711,23.119407075424196C8.00133323317871,22.123974075424194,5.710530233178711,19.775373075424195,4.745982933178711,16.757970075424193ZM16.93849713317871,23.119407075424196C19.86227613317871,22.123974075424194,22.13800413317871,19.759817075424195,23.102552133178712,16.757970075424193L26.478458133178712,17.893387075424194C25.15220413317871,22.015093075424193,22.03250313317871,25.234689075424193,18.03868513317871,26.603414075424194L16.93849713317871,23.119407075424196Z" fill-rule="evenodd" fill="#077C78" fill-opacity="1"/></g><g><path d="M8.4549112,0C4.461092,1.3531675,1.3263186,4.5883217,0.015136719,8.7100277L3.3910425,9.8454428C4.3400207,6.8285542,6.631834,4.4633627,9.5550976,3.4840069L8.4549112,0ZM16.653471,0L15.553284,3.4840069C18.461988,4.4794402,20.75279,6.8280406,21.717339,9.8454428L25.093245,8.7100277C23.782063,4.5883212,20.647289,1.3531674,16.653471,0ZM19.125214,12.940094C19.125214,16.688515,16.186363,19.721474,12.554245,19.721474C8.9221287,19.721474,5.9832764,16.688515,5.9832764,12.940094C5.9832764,9.1916733,8.9221287,6.1587143,12.554245,6.1587143C16.186363,6.1587143,19.125214,9.1916733,19.125214,12.940094ZM3.3759058,16.051208L0,17.186625C1.3111819,21.308331,4.4459553,24.543484,8.4397745,25.896652L9.5399609,22.412645C6.6312561,21.417212,4.3404531,19.068611,3.3759058,16.051208ZM15.56842,22.412645C18.492199,21.417212,20.767927,19.053055,21.732475,16.051208L25.108381,17.186625C23.782127,21.308331,20.662426,24.527927,16.668608,25.896652L15.56842,22.412645Z" fill-rule="evenodd" fill="#FFFFFF" fill-opacity="1"/></g><g><path d="M8.4549112,0C4.461092,1.3531675,1.3263186,4.5883217,0.015136719,8.7100277L3.3910425,9.8454428C4.3400207,6.8285542,6.631834,4.4633627,9.5550976,3.4840069L8.4549112,0ZM16.653471,0L15.553284,3.4840069C18.461988,4.4794402,20.75279,6.8280406,21.717339,9.8454428L25.093245,8.7100277C23.782063,4.5883212,20.647289,1.3531674,16.653471,0ZM19.125214,12.940094C19.125214,16.688515,16.186363,19.721474,12.554245,19.721474C8.9221287,19.721474,5.9832764,16.688515,5.9832764,12.940094C5.9832764,9.1916733,8.9221287,6.1587143,12.554245,6.1587143C16.186363,6.1587143,19.125214,9.1916733,19.125214,12.940094ZM3.3759058,16.051208L0,17.186625C1.3111819,21.308331,4.4459553,24.543484,8.4397745,25.896652L9.5399609,22.412645C6.6312561,21.417212,4.3404531,19.068611,3.3759058,16.051208ZM15.56842,22.412645C18.492199,21.417212,20.767927,19.053055,21.732475,16.051208L25.108381,17.186625C23.782127,21.308331,20.662426,24.527927,16.668608,25.896652L15.56842,22.412645Z" fill-rule="evenodd" fill="url(#master_svg0_28_07607)" fill-opacity="1"/></g><path d="M8.4549112,0C4.461092,1.3531675,1.3263186,4.5883217,0.015136719,8.7100277L3.3910425,9.8454428C4.3400207,6.8285542,6.631834,4.4633627,9.5550976,3.4840069L8.4549112,0ZM16.653471,0L15.553284,3.4840069C18.461988,4.4794402,20.75279,6.8280406,21.717339,9.8454428L25.093245,8.7100277C23.782063,4.5883212,20.647289,1.3531674,16.653471,0ZM19.125214,12.940094C19.125214,16.688515,16.186363,19.721474,12.554245,19.721474C8.9221287,19.721474,5.9832764,16.688515,5.9832764,12.940094C5.9832764,9.1916733,8.9221287,6.1587143,12.554245,6.1587143C16.186363,6.1587143,19.125214,9.1916733,19.125214,12.940094ZM3.3759058,16.051208L0,17.186625C1.3111819,21.308331,4.4459553,24.543484,8.4397745,25.896652L9.5399609,22.412645C6.6312561,21.417212,4.3404531,19.068611,3.3759058,16.051208ZM15.56842,22.412645C18.492199,21.417212,20.767927,19.053055,21.732475,16.051208L25.108381,17.186625C23.782127,21.308331,20.662426,24.527927,16.668608,25.896652L15.56842,22.412645Z" fill-rule="evenodd" fill="url(#master_svg2_28_07629)" fill-opacity="1" filter="url(#master_svg1_71_05422)"/></svg>