<svg xmlns="http://www.w3.org/2000/svg" xmlns:xlink="http://www.w3.org/1999/xlink" fill="none" version="1.1" width="24.395862579345703" height="23.51699447631836" viewBox="0 0 24.395862579345703 23.51699447631836"><path d="M12.200856,20.367922C7.281353,20.367922,3.2919064,16.51119,3.2919064,11.769889C3.2919064,7.0285873,7.2935905,3.18365,12.213092,3.18365C17.132595,3.18365,21.122042,7.0285873,21.122042,11.769889C21.134281,16.511194,17.132595,20.356127,12.200856,20.367922ZM12.200856,4.8230553C8.2236462,4.8230553,4.9929285,7.9367466,4.9929285,11.769889C4.9929285,15.60303,8.2236462,18.716722,12.200856,18.716722C16.178066,18.716722,19.408783,15.60303,19.408783,11.769889L19.408783,11.758095C19.396547,7.9249516,16.178066,4.8230548,12.200856,4.8230553ZM12.237568,23.516994L12.213094,23.516994C5.4701934,23.516994,0,18.244949,0,11.758095C0,9.3284721,0.77096689,6.9814095,2.2149999,4.9999685C2.3251381,4.8584371,2.5209394,4.8230548,2.6677899,4.9292021C2.8146408,5.0353513,2.8513536,5.2240605,2.7412155,5.3655915C-0.9300552,10.378163,0.33041432,17.348585,5.5436187,20.875076C9.4718781,23.540585,14.770746,23.575968,18.72348,20.957638C18.882568,20.863283,19.078369,20.91046,19.176268,21.063786C19.26193,21.193521,19.225218,21.370438,19.102844,21.46479C17.059168,22.809338,14.685081,23.516994,12.237568,23.516994ZM22.468176,17.843946C22.284615,17.843946,22.15,17.702415,22.15,17.537294C22.15,17.478323,22.162235,17.431147,22.198948,17.383968C23.75312,14.812815,24.181433,11.817064,23.385992,8.9392595C22.602789,6.0614543,20.693727,3.6554201,18.025938,2.1575458C14.109916,-0.047985505,9.1904135,0.17610602,5.4946671,2.700083C5.3478165,2.7944374,5.1520157,2.7708488,5.0418777,2.6293175C4.9317393,2.4877861,4.968452,2.2990775,5.1153026,2.1929288C7.7830939,0.3648147,11.013811,-0.35463673,14.220055,0.16431183C17.438534,0.68326044,20.240936,2.3816376,22.137762,4.9409976C24.915689,8.7033739,25.148205,13.70415,22.737404,17.69062C22.688454,17.77318,22.578314,17.832151,22.468176,17.843946ZM3.3041437,3.5256832C3.3041437,3.7379806,3.4877071,3.9148943,3.7079833,3.9148943C3.9282598,3.9148943,4.1118231,3.7379806,4.1118231,3.5256832C4.1118231,3.313386,3.9282598,3.136472,3.7079833,3.136472C3.4877071,3.136472,3.3041437,3.313386,3.3041437,3.5256832ZM20.473452,19.872562C20.473452,20.084858,20.657015,20.261774,20.877293,20.261774C21.097569,20.261774,21.281134,20.084858,21.281134,19.872562C21.281134,19.660263,21.097569,19.483351,20.877293,19.483351C20.657015,19.483351,20.473452,19.648472,20.473452,19.872562ZM9.3250275,15.60303C9.3984518,15.544059,9.4718781,15.485087,9.5208282,15.402528C9.582016,15.319968,9.6309652,15.225614,9.6799154,15.131261C9.7288666,15.036905,9.7655792,14.930758,9.8145294,14.824608L10.352983,13.503648L13.828453,13.503648L14.550469,15.260997C14.587183,15.37894,14.660607,15.485089,14.758508,15.579442C14.856408,15.662002,14.991022,15.697385,15.125635,15.68559C15.358149,15.68559,15.492762,15.626618,15.553948,15.496881C15.615137,15.343554,15.615137,15.178435,15.54171,15.036904L12.776021,8.0193043C12.739307,7.9013615,12.653646,7.7952127,12.543507,7.7244482C12.408893,7.6418867,12.249804,7.6065054,12.102954,7.6182995C11.956102,7.6065054,11.809253,7.6536818,11.674639,7.7244482C11.5645,7.7952127,11.478838,7.9013615,11.442124,8.0193043L8.6886711,15.013314C8.5907707,15.272788,8.5907707,15.461497,8.6886711,15.544057C8.79881,15.650205,8.9456606,15.697381,9.0925112,15.697381C9.153698,15.673793,9.2515993,15.650207,9.3250275,15.60303ZM12.090717,8.7623463L13.583701,12.689843L10.585497,12.689843L12.090717,8.7623463ZM4.9562154,1.7801288L4.7237015,2.9477632L5.9352207,3.1718543L4.9562154,1.7801288ZM19.261934,22.066299L19.408783,20.886871L18.185028,20.745338L19.261934,22.066299Z" fill="#18FEFE" fill-opacity="1" style="mix-blend-mode:passthrough"/></svg>