<svg xmlns="http://www.w3.org/2000/svg" xmlns:xlink="http://www.w3.org/1999/xlink" fill="none" version="1.1" width="25.16250228881836" height="22.818288803100586" viewBox="0 0 25.16250228881836 22.818288803100586"><path d="M25.044363,21.188416L13.493505,0.54329252C13.283488,0.21731688,12.968466,0,12.600938,0C12.233411,0,11.865884,0.21731718,11.708373,0.54329252L0.15751189,21.188416C-0.052503869,21.514387,-0.052503869,21.94902,0.15751189,22.275C0.36752763,22.600973,0.68255085,22.818293,1.0500785,22.818293L24.151798,22.818293C24.519325,22.818293,24.886854,22.600973,25.044363,22.275C25.20188,21.949024,25.20188,21.514389,25.044363,21.188416ZM13.703518,19.01524L11.603363,19.01524L11.603363,16.84207L13.703518,16.84207L13.703518,19.01524ZM13.703518,15.755486L11.603363,15.755486L11.603363,9.2359734L13.703518,9.2359734L13.703518,15.755486Z" fill="#FFD400" fill-opacity="1" style="mix-blend-mode:passthrough"/></svg>