<svg xmlns="http://www.w3.org/2000/svg" xmlns:xlink="http://www.w3.org/1999/xlink" fill="none" version="1.1" width="19.601688385009766" height="23.588687896728516" viewBox="0 0 19.601688385009766 23.588687896728516"><path d="M17.326365,9.159071L17.392332,9.159071C18.612564,9.159071,19.601688,10.151909,19.601688,11.376633L19.601688,17.962606C19.601688,21.069714,17.09185,23.588688,13.995836,23.588688L9.4228878,23.588688C7.6304264,23.58835,5.946301,22.728516,4.892077,21.27548L0.41737092,15.111509C-0.18530935,14.281078,-0.13022459,13.142162,0.54977041,12.374059L0.75775987,12.139114C1.5356072,11.260983,2.8754487,11.181923,3.7503655,11.962523C3.7714927,11.981346,3.7921512,12.000524,3.8124573,12.020171L4.665894,12.84489C4.7969937,12.971745,5.0059309,12.967843,5.1322269,12.836184C5.1913991,12.774447,5.224421,12.692142,5.2243667,12.606533L5.2243667,5.0221887C5.2243667,3.7974658,6.2136083,2.8048637,7.4337258,2.8048637L7.499691,2.8048637C8.7199268,2.8048637,9.7090492,3.7975836,9.7090492,5.0221887L9.7090492,7.0273948C10.024497,6.8618898,10.375341,6.7756906,10.731391,6.7762146L10.797239,6.7762146C11.811128,6.7762146,12.665504,7.4616361,12.925489,8.3960018C13.260799,8.2015648,13.641439,8.0994453,14.028819,8.0999985L14.094785,8.0999985C15.027332,8.0999985,15.8249,8.6797705,16.14909,9.4997826C16.501333,9.2765932,16.909641,9.1584263,17.326365,9.159071ZM5.7349496,20.659117C6.593051,21.841846,7.9638815,22.541716,9.4228878,22.541967L13.995835,22.541967C16.515886,22.541967,18.558807,20.491585,18.558807,17.962374L18.558807,11.376398C18.558807,10.729918,18.036486,10.205793,17.39233,10.205793L17.326365,10.205793C16.682207,10.205793,16.160006,10.729918,16.160006,11.376398L16.160006,13.726194C16.160006,14.327381,15.261261,14.327381,15.261261,13.726194L15.261261,10.317441C15.261261,9.6708431,14.73894,9.146719,14.094784,9.146719L14.028818,9.146719C13.384661,9.146719,12.862458,9.6708431,12.862458,10.317324L12.862458,12.93195C12.862458,13.533134,11.963714,13.533134,11.963714,12.93195L11.963714,8.9936571C11.963714,8.3470602,11.441395,7.8229346,10.797237,7.8229346L10.731273,7.8229346C10.087115,7.8229346,9.5649118,8.3470602,9.5649118,8.9935398L9.5649118,12.137702C9.5649118,12.738888,8.6661682,12.738888,8.6661682,12.137702L8.6661682,5.0223069C8.6661682,4.3757095,8.1438484,3.8514669,7.499691,3.8514669L7.4337258,3.8514669C6.7895694,3.8514669,6.2673655,4.3757095,6.2673655,5.0221896L6.2673655,12.606415C6.2673655,12.962891,6.1298008,13.305249,5.8835473,13.561958C5.3577051,14.110085,4.4885392,14.126554,3.9425082,13.598783L3.0890715,12.773947C2.6487856,12.348165,1.9433413,12.375656,1.5373673,12.834419L1.3292605,13.069245C0.97507668,13.469296,0.94636261,14.06249,1.2602438,14.49503L5.7349496,20.659117ZM11.913594,4.5294766C11.913594,4.8218665,11.677117,5.0588956,11.385406,5.0588956C11.093695,5.0588956,10.857216,4.8218665,10.857216,4.5294766C10.857216,2.6127431,9.306921,1.0588386,7.3946395,1.0588386C5.4823589,1.0588386,3.9320621,2.6127431,3.9320621,4.5294766C3.9320617,4.8218665,3.6955836,5.0588956,3.4038718,5.0588956C3.1121609,5.0588956,2.8756824,4.821866,2.8756828,4.5294766C2.8756828,2.0279109,4.8988843,0,7.394639,0C9.8903933,0,11.913594,2.0279109,11.913594,4.5294766Z" fill="#18FEFE" fill-opacity="1" style="mix-blend-mode:passthrough"/></svg>