<svg xmlns="http://www.w3.org/2000/svg" xmlns:xlink="http://www.w3.org/1999/xlink" fill="none" version="1.1" width="25.416488647460938" height="25.475656509399414" viewBox="0 0 25.416488647460938 25.475656509399414"><defs><clipPath id="master_svg0_69_8754"><rect x="0" y="0" width="25.416488647460938" height="25.475656509399414" rx="0"/></clipPath></defs><g clip-path="url(#master_svg0_69_8754)"><path d="M12.7098024453125,2.8578067453125C14.0292744453125,2.8578067453125,15.3090364453125,3.1167923953125003,16.513092445312502,3.6273010953125002C17.6766914453125,4.1206433953125,18.7216454453125,4.826945995312499,19.6194134453125,5.7265550953125C20.5171814453125,6.6264123953125,21.2218434453125,7.6738004953125,21.7137904453125,8.8401083953125C22.2231154453125,10.0472163953125,22.4815004453125,11.3297071953125,22.4815004453125,12.6522521953125C22.4815004453125,13.9747971953125,22.2233624453125,15.2575391953125,21.7137904453125,16.4643971953125C21.2215954453125,17.6307051953125,20.5169334453125,18.6780931953125,19.6194134453125,19.5779511953125C18.7216454453125,20.4778101953125,17.6766914453125,21.1841121953125,16.513092445312502,21.6772041953125C15.3087864453125,22.1877131953125,14.0292744453125,22.4466991953125,12.7098024453125,22.4466991953125C11.3903303453125,22.4466991953125,10.1105690453125,22.1879611953125,8.9065127453125,21.6772041953125C7.7429142453125,21.1838611953125,6.6979589453125,20.4775601953125,5.8001911453125,19.5779511953125C4.9024233453125,18.6780931953125,4.1977610453125,17.6307051953125,3.7058128453125,16.4643971953125C3.1964900453125002,15.2572891953125,2.9381057053125,13.9747971953125,2.9381057053125,12.6522521953125C2.9381057053125,11.3297080953125,3.1962419453125,10.0469679953125,3.7058128453125,8.8401093953125C4.198009045312499,7.6738008953125,4.9026711453125,6.6264133953125,5.8001911453125,5.7265557953125C6.6979594453125,4.8266977953125,7.7429142453125,4.120395395312499,8.9065127453125,3.6273016953125C10.1105699453125,3.1167932953125,11.3903303453125,2.8578073953125003,12.7098024453125,2.8578067453125ZM12.7098024453125,2.1114501953125C6.9017372453125,2.1114501953125,2.1934814453125,6.8306669953125,2.1934814453125,12.6522531953125C2.1934814453125,18.4738411953125,6.9017372453125,23.1930561953125,12.7098024453125,23.1930561953125C18.5178684453125,23.1930561953125,23.2261234453125,18.4738391953125,23.2261234453125,12.6522521953125C23.2261234453125,6.8306664953125,18.5178684453125,2.11144943607866,12.7098024453125,2.1114501953125Z" fill="#18FEFE" fill-opacity="1" style="mix-blend-mode:passthrough"/><path d="M12.0231303921875,18.178833476562502C11.7622642921875,18.178833476562502,11.4986671921875,18.1066834765625,11.2631182921875,17.9559204765625L11.1879114921875,17.9076554765625L7.3508650921875,14.4764032765625C6.8904396961875,14.064912276562499,6.8502293821875,13.3571161765625,7.2610139221875,12.8956193765625C7.6717976921875,12.4343709765625,8.3777010921875,12.3938183765625,8.838127292187501,12.8055591765625L11.7873339921875,15.4426879765625L15.9388589921875,7.4788090565625C16.2245463921875,6.9307341315625,16.8994235921875,6.7187689965625,17.4459769921875,7.0051208165625C17.9927799921875,7.2914733865625,18.2042509921875,7.9679217765625,17.9185649921875,8.5157475765625L13.2438168921875,17.4837244765625L13.2175073921875,17.525023476562502C12.9477052921875,17.9477104765625,12.4900097921875,18.178833476562502,12.0231303921875,18.178833476562502Z" fill="#18FEFE" fill-opacity="1" style="mix-blend-mode:passthrough"/></g></svg>