<svg xmlns="http://www.w3.org/2000/svg" xmlns:xlink="http://www.w3.org/1999/xlink" fill="none" version="1.1" width="24.84228515625" height="26.19873046875" viewBox="0 0 24.84228515625 26.19873046875"><path d="M9.427497370159912,15.333009918518066L4.335888090159912,15.333009918518066C3.671132740159912,15.333009918518066,3.212571260159912,14.660783918518067,3.449125692159912,14.033606918518066L8.508477170159912,0.6172118185180664C8.648605870159912,0.2456016085180664,9.001305070159912,0.0000010531000664062566,9.394924170159912,-0.00006008148193359375L17.932382570159913,-0.00006008148193359375C18.60599157015991,-0.00006008148193359375,19.06518357015991,0.6894183785180664,18.810924570159912,1.3197896185180664L15.865063570159911,8.624812118518067L21.410806570159913,8.624812118518067C22.22641157015991,8.624812118518067,22.661570570159913,9.596088418518066,22.12363157015991,10.215275918518067L8.526822570159911,25.867531918518065C7.865861370159912,26.628574918518066,6.6403963701599125,25.969128918518066,6.896874470159912,24.990503918518066L9.427497370159912,15.333009918518066ZM10.048610170159911,1.9169330185180664L5.7122037701599115,13.416334918518066L10.659603070159912,13.416334918518066C11.282109770159913,13.416396918518066,11.735878470159912,14.011885918518066,11.576724570159913,14.619885918518067L9.764301770159912,21.537678918518065L19.31628757015991,10.541486918518066L14.454276570159912,10.541486918518066C13.780665570159911,10.541486918518066,13.321472670159912,9.852007818518066,13.575737570159912,9.221636818518066L16.521596570159915,1.9166148185180665L10.048610170159911,1.9166148185180665L10.048610170159911,1.9169330185180664Z" fill="#888888" fill-opacity="1" style="mix-blend-mode:passthrough"/><line x1="2.4452028274536133" y1="1.3305683135986328" x2="27.52915096282959" y2="1.3305683135986328" fill-opacity="0" stroke-opacity="1" stroke="#292929" fill="none" stroke-width="3" transform="matrix(0.8256168961524963,0.5642310976982117,-0.5624426603317261,0.8268362879753113,2.0184344311391555,-0.8895077591067206)"/><line x1="0.5625" y1="7.935368537902832" x2="25.646448135375977" y2="7.935368537902832" fill-opacity="0" stroke-opacity="1" stroke="#292929" fill="none" stroke-width="3" transform="matrix(0.8256168961524963,0.5642310976982117,-0.5624426603317261,0.8268362879753113,5.404944277582558,1.3164834478889702)"/></svg>