<svg xmlns="http://www.w3.org/2000/svg" xmlns:xlink="http://www.w3.org/1999/xlink" fill="none" version="1.1" width="22.798355102539062" height="19.313140869140625" viewBox="0 0 22.798355102539062 19.313140869140625"><path d="M0.88251698,0L21.915838,0C22.357094,0,22.798355,0.44228581,22.798355,0.88457143L22.798355,16.069714C22.798355,16.511999,22.357094,16.954287,21.915838,16.954287L12.208151,16.954287L12.208151,18.133717L17.061995,18.133717C17.356167,18.133717,17.650339,18.428572,17.650339,18.723427C17.650339,19.018286,17.356167,19.313141,17.061995,19.313141L5.5892735,19.313141C5.2951016,19.313141,5.0009289,19.018286,5.0009289,18.723427C5.0009289,18.428572,5.2951016,18.133717,5.5892735,18.133717L10.443116,18.133717L10.443116,16.954285L0.88251698,16.954285C0.44125849,16.954285,0,16.511999,0,16.069714L0,0.88457143C0,0.2948572,0.29417229,0,0.88251698,0ZM19.415371,12.678857C18.974115,12.678857,18.532854,13.121143,18.532854,13.563429C18.532854,14.005715,18.974115,14.448001,19.415371,14.448001C19.856632,14.448001,20.297892,14.005715,20.297892,13.563429C20.297892,12.973715,19.856632,12.678857,19.415371,12.678857ZM21.033323,1.7691427L1.765034,1.7691427L1.765034,15.185144L21.033323,15.185144L21.033323,1.7691427Z" fill="#9C9C9C" fill-opacity="1" style="mix-blend-mode:passthrough"/></svg>