<svg xmlns="http://www.w3.org/2000/svg" xmlns:xlink="http://www.w3.org/1999/xlink" fill="none" version="1.1" width="19.76837921142578" height="26.419198989868164" viewBox="0 0 19.76837921142578 26.419198989868164"><path d="M13.49268,0.40349457C13.321496,0.40349457,13.207426,0.51875585,13.207426,0.69159406C13.207426,0.86443228,13.321548,0.97969347,13.49268,0.97969347C16.630541,0.97969347,19.197874,3.5726423,19.197874,6.7418165C19.197874,6.9147081,19.311995,7.0299158,19.483126,7.0299158C19.654255,7.0299158,19.768379,6.9146547,19.768379,6.7418165C19.768379,3.2557406,16.944365,0.40352124,13.492707,0.40352124L13.49268,0.40349457ZM3.0237391,0.00013389526L4.5070653,0.00013389526L4.5070653,7.6348906L3.0237391,7.6348906L3.0237391,0.00013389526ZM6.9317551,4.5809236L7.9872146,4.5809236L9.470541,7.6348095L11.18214,7.6348095L9.4991121,4.3504276C10.240775,4.0911303,10.868395,3.428499,10.868395,2.3336778C10.868395,1.0659654,9.9555759,0,8.4151602,0L5.4484553,0L5.4484553,7.634757L6.9317818,7.634757L6.9317818,4.5808697L6.9317551,4.5809236ZM6.9317551,1.3253701L8.3295298,1.3253701C8.9856396,1.3253701,9.4135065,1.757506,9.4135065,2.3337314C9.4135065,2.9099572,8.9856396,3.3420932,8.3295298,3.3420932L6.9317551,3.3420932L6.9317551,1.3253701L6.9317551,1.3253701ZM13.521197,14.895116L13.521197,10.861642C13.521197,9.6515865,12.551343,8.700882,11.381789,8.700882L2.1394107,8.700882C0.94131106,8.700882,0,9.6804142,0,10.861642L0,20.196243C0,21.406301,0.96985465,22.357004,2.1394107,22.357004L9.0997095,22.357004L9.0997095,22.558645C9.0997095,23.019609,9.2708941,23.451771,9.6131811,23.797499L12.123452,26.332821C12.180514,26.390453,12.266091,26.419199,12.323097,26.419199C12.380106,26.419199,12.465739,26.390421,12.522745,26.332821C12.636868,26.21756,12.636868,26.04472,12.522745,25.929434L10.012476,23.394114C9.7842846,23.163647,9.6701889,22.875521,9.6701889,22.55862L9.6701889,21.06049C9.6701889,20.599525,9.4990053,20.167364,9.1567173,19.82163L6.8460965,17.487957C6.3326249,16.969358,6.2755375,16.105009,6.7319741,15.586466C6.9887109,15.298368,7.3310246,15.125504,7.7018294,15.125504C8.0726614,15.096726,8.4434929,15.240763,8.7002277,15.528892L10.326166,17.171055C10.440289,17.286314,10.61142,17.286314,10.725569,17.171055C10.839717,17.055794,10.83969,16.882954,10.725569,16.767668L9.8983269,15.932169C9.8983269,15.816912,9.9268169,15.730531,9.9268169,15.61527C9.9268169,13.857844,8.5290442,12.446096,6.7889552,12.446096C5.0488682,12.446096,3.6510937,13.857819,3.6510937,15.61527C3.6510937,17.372723,5.0488682,18.784445,6.7889552,18.784445C6.9315948,18.784445,7.102726,18.755669,7.2453661,18.755669L8.7572355,20.282627C8.9284191,20.455517,9.0424891,20.686016,9.0710058,20.945284L2.13925,20.945284C1.739848,20.945284,1.4261304,20.628384,1.4261304,20.225048L1.4261304,10.86167C1.4261304,10.458282,1.7399011,10.141433,2.13925,10.141433L11.381628,10.141433C11.78103,10.141433,12.094747,10.458336,12.094747,10.86167L12.094747,17.171164C12.094747,17.574549,12.408517,17.891397,12.807867,17.891397C13.207215,17.891397,13.520986,17.574497,13.520986,17.171164L13.520986,15.730636L14.66197,16.883009C14.890163,17.113476,15.004259,17.401604,15.004259,17.718502L15.004259,21.665571C15.004259,21.838463,15.118382,21.953672,15.289513,21.953672C15.460644,21.953672,15.574763,21.838409,15.574763,21.665571L15.574763,17.689732C15.574763,17.228765,15.403582,16.796604,15.061295,16.450871L13.52088,14.895085L13.521197,14.895116ZM5.9333301,17.084728C5.4198589,16.796631,5.0775709,16.22043,5.0775709,15.586601C5.0775709,14.635869,5.8477788,13.857923,6.7891684,13.857923C7.3597269,13.857923,7.8731446,14.146025,8.1869421,14.578158C8.0443029,14.549386,7.8731718,14.520527,7.7020144,14.520527C7.1600785,14.549304,6.6751518,14.779826,6.3042412,15.183188C5.8478308,15.730529,5.7336812,16.450897,5.9334092,17.084673L5.9333301,17.084728Z" fill="#18FEFE" fill-opacity="1" style="mix-blend-mode:passthrough"/></svg>