<svg xmlns="http://www.w3.org/2000/svg" xmlns:xlink="http://www.w3.org/1999/xlink" fill="none" version="1.1" width="23.533784866333008" height="23.588571548461914" viewBox="0 0 23.533784866333008 23.588571548461914"><defs><clipPath id="master_svg0_69_9357"><rect x="0" y="0" width="23.533784866333008" height="23.588571548461914" rx="0"/></clipPath></defs><g clip-path="url(#master_svg0_69_9357)"><path d="M5.5297301265625,8.8595647421875L5.5297301265625,9.8984747421875L3.5670495265625,9.8984747421875C3.4222612265625,9.8984747421875,3.3050521265625,10.0758495421875,3.3050521265625,10.2923860421875L3.3050521265625,10.4259939421875C3.3050521265625,10.6448326421875,3.4222617265624997,10.8199033421875,3.5670495265625,10.8199033421875L8.3496480265625,10.8199033421875C8.494435326562499,10.8199033421875,8.6116447265625,10.6425285421875,8.6116447265625,10.4259939421875L8.6116447265625,10.2923860421875C8.6116447265625,10.0735473421875,8.494435326562499,9.8984747421875,8.3496480265625,9.8984747421875L6.4490194265625,9.8984747421875L6.4490194265625,8.8595647421875L9.6803179265625,8.8595647421875C10.4341345265625,8.8595647421875,11.0500583265625,8.1961364421875,11.0500583265625,7.3783683421875L11.0500583265625,3.0015821421875C11.0500583265625,2.1861178921875,10.4364338265625,1.5203857421875,9.6803179265625,1.5203857421875L2.9074595265625,1.5203857421875C2.1536428965625,1.5203857421875,1.5377197265625,2.1838143421875,1.5377197265625,3.0015821421875L1.5377197265625,7.3806719421875C1.5377197265625,8.1961350421875,2.1513448965625,8.8618679421875,2.9074595265625,8.8618679421875L5.5297301265625,8.8618679421875L5.5297301265625,8.8595647421875ZM2.4570083665625,7.3806724421875L2.4570083665625,3.0015826421875C2.4570083665625,2.6929040421875,2.6592518265625,2.4418146621875,2.9074597265625,2.4418146621875L9.6803179265625,2.4418146621875C9.9285259265625,2.4418146621875,10.1307687265625,2.6929040421875,10.1307687265625,3.0015826421875L10.1307687265625,7.3806724421875C10.1307687265625,7.6893506421875,9.9285259265625,7.9404392421875,9.6803179265625,7.9404392421875L2.9074595265625,7.9404392421875C2.6592514265625002,7.9381361421875,2.4570081865624998,7.6870465421875,2.4570083665625,7.3806724421875ZM20.8427777265625,12.5821347421875L12.8541617265625,12.5821347421875C12.2612187265625,12.5821347421875,11.7808917265625,13.1142607421875,11.7808917265625,13.7730817421875L11.7808917265625,18.8824027421875C11.7808917265625,19.5389237421875,12.2612187265625,20.0733487421875,12.8541617265625,20.0733487421875L16.3957187265625,20.0733487421875L16.3957187265625,21.1629407421875L14.4215467265625,21.1629407421875C14.2836537265625,21.1629407421875,14.1710407265625,21.3311007421875,14.1710407265625,21.5384217421875L14.1710407265625,21.7065787421875C14.1710407265625,21.9139027421875,14.2836537265625,22.0820637421875,14.4215467265625,22.0820637421875L19.2294257265625,22.0820637421875C19.3673187265625,22.0820637421875,19.4799327265625,21.9139027421875,19.4799327265625,21.7065787421875L19.4799327265625,21.5384217421875C19.4799327265625,21.3311007421875,19.3673187265625,21.1629407421875,19.2294257265625,21.1629407421875L17.317305726562502,21.1629407421875L17.317305726562502,20.0733487421875L20.8450757265625,20.0733487421875C21.4380167265625,20.0733487421875,21.9183467265625,19.5412257421875,21.9183467265625,18.8824027421875L21.9183467265625,13.7730817421875C21.9137477265625,13.1165637421875,21.4334197265625,12.5821347421875,20.8427777265625,12.5821347421875ZM12.2336417265625,3.4024038421875L19.8407517265625,3.4024038421875L19.8407517265625,9.9284210421875C19.8407517265625,10.1818142421875,20.0475917265625,10.3891353421875,20.3003957265625,10.3891353421875C20.5532017265625,10.3891353421875,20.7600407265625,10.1818142421875,20.7600407265625,9.9284210421875L20.7600407265625,2.4809752121875L12.2336417265625,2.4809752121875C11.9808367265625,2.4809752121875,11.7739977265625,2.6882966421875,11.7739977265625,2.9416894421875C11.7739977265625,3.1950823421875,11.9808367265625,3.4024038421875,12.2336417265625,3.4024038421875ZM10.8868837265625,20.4972057421875L3.2797717265625,20.4972057421875L3.2797717265625,13.9711897421875C3.2797717265625,13.7177967421875,3.0729317265625,13.5104747421875,2.8201273265625,13.5104747421875C2.5673229265625,13.5104747421875,2.3604831065625,13.7177967421875,2.3604831065625,13.9711897421875L2.3604831065625,21.4209387421875L10.8868837265625,21.4209387421875C11.1396885265625,21.4209387421875,11.3465280265625,21.2136177421875,11.3465280265625,20.9602237421875C11.3465280265625,20.7068307421875,11.1419859265625,20.4972077421875,10.8868837265625,20.4972057421875Z" fill="#18FEFE" fill-opacity="1" style="mix-blend-mode:passthrough"/><path d="M9.100962124999999,7.210149303125L3.516284855,7.210149303125C3.263480525,7.210149303125,3.056640625,7.0028279031250005,3.056640625,6.749434903125L3.056640625,3.524434983125C3.056640625,3.271042123125,3.263480525,3.063720703125,3.516284855,3.063720703125L9.100962124999999,3.063720703125C9.353766425,3.063720703125,9.560606525,3.271042123125,9.560606525,3.524434983125L9.560606525,6.749434903125C9.560606525,7.0028279031250005,9.353766425,7.210149303125,9.100962124999999,7.210149303125Z" fill="#18FEFE" fill-opacity="1" style="mix-blend-mode:passthrough"/></g></svg>