<svg xmlns="http://www.w3.org/2000/svg" xmlns:xlink="http://www.w3.org/1999/xlink" fill="none" version="1.1" width="24.475135803222656" height="24.532114028930664" viewBox="0 0 24.475135803222656 24.532114028930664"><defs><clipPath id="master_svg0_69_9687"><rect x="-0.5" y="-0.5" width="25.475135803222656" height="25.532114028930664" rx="0"/></clipPath></defs><g clip-path="url(#master_svg0_69_9687)"><path d="M19.7744616640625,18.179084209375Q16.5812736640625,17.261474969375,12.0907206640625,17.261474969375Q7.6001596640625,17.261474609375,4.4069721640625,18.179083999375Q0.9195561140624999,19.181244409375,0.9195563840625001,20.827989109375Q0.9195558140625,22.474733309375,4.4069721640625,23.476894409375Q7.6001582640625,24.394503109375,12.0907156640625,24.394503109375Q16.5812726640625,24.394503109375,19.7744596640625,23.476894409375Q23.2618766640625,22.474734809375,23.2618766640625,20.827990309375Q23.2618766640625,19.181244409375,19.7744616640625,18.179084209375ZM4.6831595640625,19.140187909375Q7.7409925640625,18.261474609375,12.0907166640625,18.261474609375Q16.4404406640625,18.261474909375,19.4982716640625,19.140188109375Q20.8984066640625,19.542537309375,21.6422976640625,20.047940709375Q22.2618766640625,20.468887109375,22.2618766640625,20.827990309375Q22.2618766640625,21.187091809375,21.6422976640625,21.608037909375Q20.8984066640625,22.113440509375,19.4982716640625,22.515790509375Q16.440438664062498,23.394503109375,12.0907156640625,23.394502609375Q7.7409911640625,23.394502609375,4.6831595640625,22.515790009375Q3.2830248640625,22.113440509375,2.5391354640625,21.608037209375Q1.9195557240625,21.187090609375,1.9195564340625,20.827988609375Q1.9195563840625,20.468887609375,2.5391363640625,20.047940709375Q3.2830275640625,19.542536409375,4.6831595640625,19.140187909375Z" fill-rule="evenodd" fill="#18FEFE" fill-opacity="1"/><path d="M12.912175153125,20.4403842421875L18.411029953125002,14.2918262421875L18.414526953124998,14.2878742421875Q20.090658953125,12.3734202421875,20.469060953125,9.9257755421875Q20.848510953125,7.4713454421875,19.816274953125,5.1678066421875Q18.784163953125002,2.8450269421875,16.704985953125,1.4911749321875Q14.626190953125,0.13757330218750002,12.090876553125,0.1375735421875Q9.558647153125001,0.1375732421875,7.477485453125,1.4876410321875Q5.399566453125,2.8356051421875,4.365477803125,5.1432747421875Q3.333369373125,7.4660391421875,3.712692973125,9.9196415421875Q4.091310263125,12.3686732421875,5.768905353125,14.2652492421875L11.286374053125,20.4592052421875L11.296359553125,20.4692132421875Q11.638678553125,20.8123282421875,12.090876553125,20.8123282421875Q12.606913553125,20.8123282421875,12.912175153125,20.4403842421875ZM19.480799953125,9.7729911421875Q19.147003953125,11.9321112421875,17.663895953125,13.6271462421875L17.662120953124997,13.6291302421875L12.149386453125,19.7932092421875L12.140640253125,19.8041672421875Q12.134124753125,19.8123282421875,12.090876553125,19.8123282421875Q12.056604853125,19.8123282421875,12.012223253125,19.7706372421875L6.517930053125,13.6027072421875Q5.034739853125,11.9259132421875,4.700952653125,9.7668571421875Q4.3665174831249995,7.6036100421875,5.278043853125,5.5522041421875Q6.191426253125,3.5139014421875,8.021711853125,2.3265794421874997Q9.854593253125,1.1375732421875,12.090876553125,1.1375736021875Q14.329311953125,1.1375733621875002,16.159320953125,2.3291788421875Q17.990492953125,3.5215413421875,18.903707953125,5.5767359421875Q19.815101953125,7.6106023421875,19.480799953125,9.7729911421875Z" fill-rule="evenodd" fill="#18FEFE" fill-opacity="1"/><path d="M14.418096079687501,11.113300803125Q15.380989979687499,10.148165703124999,15.380989979687499,8.782257103125Q15.380989979687499,7.416348703125,14.418096079687501,6.451213183125Q13.4547218796875,5.485596033125,12.0908245796875,5.485595703125Q10.7269267796875,5.485595703125,9.7635524596875,6.451213003125Q8.8006591796875,7.416347903125,8.8006591796875,8.782256803125Q8.8006591796875,10.148165703124999,9.7635526696875,11.113300803125Q10.7269268796875,12.078918003125,12.0908245796875,12.078918003125Q13.4547218796875,12.078918003125,14.418096079687501,11.113300803125ZM13.7101678796875,7.157497303125Q14.380989979687499,7.8298808031250005,14.380989979687499,8.782256803125Q14.380989979687499,9.734633003125,13.7101678796875,10.407016303125001Q13.0398270796875,11.078917503125,12.0908245796875,11.078917503125Q11.1418217796875,11.078917503125,10.4714810796875,10.407016303125001Q9.8006591796875,9.734633003125,9.8006591796875,8.782256803125Q9.8006591796875,7.829880603125,10.4714809796875,7.157497203125Q11.1418218796875,6.485595703125,12.0908243796875,6.485595703125Q13.0398270796875,6.485595883125,13.7101678796875,7.157497303125Z" fill-rule="evenodd" fill="#18FEFE" fill-opacity="1"/></g></svg>